# xmcd
#
# Track frame offsets:
#	150
#	13421
#	28692
#	47604
#	63114
#	70336
#	87208
#	101350
#	117750
#	132374
#	148040
#	159925
#	172412
#	186525
# Disc length: 2890 seconds
# Revision: 1
# Processed by: cddbd v1.5.2PL0 Copyright (c) Steve Scherf et al.
#
# Submitted via: libkcddb 0.31
#
DISCID=c50b480e
DTITLE=Morgan Davis - Hogtown Years
DYEAR=2003
DGENRE=Blues
TTITLE0=I'm Ready To Play
TTITLE1=Honky Tonk Blues
TTITLE2=Why'd You Lie
TTITLE3=Satisfaction Guaranteed
TTITLE4=Happy Song
TTITLE5=Prop Me Up Against The Wall
TTITLE6=Time To Go
TTITLE7=Love Song
TTITLE8=Married Woman Blues
TTITLE9=Whatchasee
TTITLE10=Rosalee
TTITLE11=Buddy Bolden's Blues
TTITLE12=Easy Money
TTITLE13=Reefer Smokin' Man
EXTD=
EXTT0=
EXTT1=
EXTT2=
EXTT3=
EXTT4=
EXTT5=
EXTT6=
EXTT7=
EXTT8=
EXTT9=
EXTT10=
EXTT11=
EXTT12=
EXTT13=
PLAYORDER=
